<svg width="50" height="50" fill="none" xmlns="http://www.w3.org/2000/svg"><mask id="mask0_18965_4956" style="mask-type:alpha" maskUnits="userSpaceOnUse" x="0" y="0" width="50" height="50"><path d="M0 16C0 7.163 7.163 0 16 0h18c8.837 0 16 7.163 16 16v18c0 8.837-7.163 16-16 16H16C7.163 50 0 42.837 0 34V16Z" fill="#D9D9D9"/></mask><g mask="url(#mask0_18965_4956)"><path fill="#fff" d="M0 0h50v50H0z"/><path fill-rule="evenodd" clip-rule="evenodd" d="M34 1H16C7.716 1 1 7.716 1 16v18c0 8.284 6.716 15 15 15h18c8.284 0 15-6.716 15-15V16c0-8.284-6.716-15-15-15ZM16 0C7.163 0 0 7.163 0 16v18c0 8.837 7.163 16 16 16h18c8.837 0 16-7.163 16-16V16c0-8.837-7.163-16-16-16H16Z" fill="#000" fill-opacity=".12"/><path fill-rule="evenodd" clip-rule="evenodd" d="M11.54 21.631c0-7.434 6.027-13.461 13.462-13.461 7.434 0 13.461 6.027 13.461 13.461 0 3.717-1.506 7.081-3.94 9.517-.636.636-1.497 1.346-2.428 2.115-2.636 2.175-5.835 4.815-6.084 7.551-.05.555-.452 1.01-1.01 1.01-.557 0-.959-.455-1.009-1.01-.249-2.736-3.448-5.376-6.084-7.551-.93-.769-1.791-1.479-2.427-2.115a13.418 13.418 0 0 1-3.941-9.517Zm18.174.001a4.712 4.712 0 1 1-9.423 0 4.712 4.712 0 0 1 9.423 0Z" fill="url(#paint0_linear_18965_4956)"/><path fill-rule="evenodd" clip-rule="evenodd" d="M11.54 21.631c0-7.434 6.027-13.461 13.462-13.461 7.434 0 13.461 6.027 13.461 13.461 0 3.717-1.506 7.081-3.94 9.517-.636.636-1.497 1.346-2.428 2.115-2.636 2.175-5.835 4.815-6.084 7.551-.05.555-.452 1.01-1.01 1.01-.557 0-.959-.455-1.009-1.01-.249-2.736-3.448-5.376-6.084-7.551-.93-.769-1.791-1.479-2.427-2.115a13.418 13.418 0 0 1-3.941-9.517Zm18.174.001a4.712 4.712 0 1 1-9.423 0 4.712 4.712 0 0 1 9.423 0Z" fill="#F43"/></g><defs><linearGradient id="paint0_linear_18965_4956" x1="25.002" y1="8.17" x2="25.002" y2="41.824" gradientUnits="userSpaceOnUse"><stop stop-color="#FF6122"/><stop offset="1" stop-color="#F22411"/></linearGradient></defs></svg>